<svg width="200" height="33" viewBox="0 0 200 33" fill="none" xmlns="http://www.w3.org/2000/svg">
<path d="M0.413627 3.79228C0.854829 4.73128 8.57586 18.963 8.71374 19.0803C8.82404 19.1977 10.2304 16.5861 10.2304 16.2634C10.2304 15.9699 3.77779 3.99769 3.28144 3.35212C3.11599 3.14672 2.37146 3 1.51663 3H0L0.413627 3.79228Z" fill="black"/>
<path d="M5.8459 3.64555C6.1768 4.3498 11.3609 13.9452 11.4712 14.0919C11.5815 14.2386 12.9879 11.451 12.9603 11.0989C12.9603 10.9228 11.9952 9.04479 10.837 6.96139L8.71371 3.14671L7.11436 3.05868C5.515 2.97065 5.515 2.97065 5.8459 3.64555Z" fill="black"/>
<path d="M17.8411 6.66795C16.8484 8.5166 16.0212 10.1598 16.0212 10.3359C16.0212 10.5413 16.5451 10.6293 17.4551 10.5707L18.9165 10.4826L19.9368 8.60463C20.4883 7.5776 21.095 6.57992 21.2604 6.40386C21.6465 5.99304 23.5216 5.93436 23.4113 6.37451C23.3561 6.55057 22.6392 7.95907 21.8119 9.54363L20.2953 12.39H14.6976L12.3261 16.8502L9.95463 21.2811L12.0503 25.2132C13.2085 27.3846 14.2288 29.0572 14.3115 28.9985C14.3666 28.9105 15.8006 26.3576 17.4551 23.3352L20.4332 17.8186L19.0268 17.7305C18.2272 17.6718 17.4826 17.7599 17.3448 17.9066C17.1793 18.0826 16.4899 19.2857 15.7454 20.6355C15.0285 21.9854 14.3391 23.0711 14.2288 23.0417C14.1185 23.0417 13.7876 22.6309 13.5118 22.1614L13.043 21.3398L14.6148 18.4054L16.2142 15.4711L21.8947 15.1776L24.9004 9.60232C26.5824 6.52123 27.9888 3.85095 28.0715 3.64555C28.1818 3.38145 27.2442 3.29342 23.9352 3.29342H19.6887L17.8411 6.66795Z" fill="black"/>
<path d="M0.413627 3.79228C0.854829 4.73128 8.57586 18.963 8.71374 19.0803C8.82404 19.1977 10.2304 16.5861 10.2304 16.2634C10.2304 15.9699 3.77779 3.99769 3.28144 3.35212C3.11599 3.14672 2.37146 3 1.51663 3H0L0.413627 3.79228Z" fill="black"/>
<path d="M5.8459 3.64555C6.1768 4.3498 11.3609 13.9452 11.4712 14.0919C11.5815 14.2386 12.9879 11.451 12.9603 11.0989C12.9603 10.9228 11.9952 9.04479 10.837 6.96139L8.71371 3.14671L7.11436 3.05868C5.515 2.97065 5.515 2.97065 5.8459 3.64555Z" fill="black"/>
<path d="M17.8411 6.66795C16.8484 8.5166 16.0212 10.1598 16.0212 10.3359C16.0212 10.5413 16.5451 10.6293 17.4551 10.5707L18.9165 10.4826L19.9368 8.60463C20.4883 7.5776 21.095 6.57992 21.2604 6.40386C21.6465 5.99304 23.5216 5.93436 23.4113 6.37451C23.3561 6.55057 22.6392 7.95907 21.8119 9.54363L20.2953 12.39H14.6976L12.3261 16.8502L9.95463 21.2811L12.0503 25.2132C13.2085 27.3846 14.2288 29.0572 14.3115 28.9985C14.3666 28.9105 15.8006 26.3576 17.4551 23.3352L20.4332 17.8186L19.0268 17.7305C18.2272 17.6718 17.4826 17.7599 17.3448 17.9066C17.1793 18.0826 16.4899 19.2857 15.7454 20.6355C15.0285 21.9854 14.3391 23.0711 14.2288 23.0417C14.1185 23.0417 13.7876 22.6309 13.5118 22.1614L13.043 21.3398L14.6148 18.4054L16.2142 15.4711L21.8947 15.1776L24.9004 9.60232C26.5824 6.52123 27.9888 3.85095 28.0715 3.64555C28.1818 3.38145 27.2442 3.29342 23.9352 3.29342H19.6887L17.8411 6.66795Z" fill="black"/>
<path d="M31.7367 27.2892C30.4443 27.2892 29.2892 26.9984 28.2714 26.4168C27.2536 25.8353 26.454 25.0356 25.8724 24.0178C25.2908 23 25 21.8449 25 20.5525C25 19.244 25.2908 18.0808 25.8724 17.063C26.454 16.0453 27.2536 15.2456 28.2714 14.664C29.2892 14.0824 30.4443 13.7916 31.7367 13.7916C33.0291 13.7916 34.1761 14.0824 35.1777 14.664C36.1955 15.2456 36.9952 16.0453 37.5768 17.063C38.1584 18.0808 38.4572 19.244 38.4734 20.5525C38.4734 21.8449 38.1745 23 37.5768 24.0178C36.9952 25.0356 36.1955 25.8353 35.1777 26.4168C34.1761 26.9984 33.0291 27.2892 31.7367 27.2892ZM31.7367 25.5929C32.6737 25.5929 33.5138 25.3748 34.2569 24.9387C35 24.5025 35.5816 23.9047 36.0016 23.1454C36.4217 22.3861 36.6317 21.5218 36.6317 20.5525C36.6317 19.5832 36.4217 18.7189 36.0016 17.9596C35.5816 17.1842 35 16.5784 34.2569 16.1422C33.5138 15.706 32.6737 15.4879 31.7367 15.4879C30.7997 15.4879 29.9596 15.706 29.2165 16.1422C28.4734 16.5784 27.8837 17.1842 27.4475 17.9596C27.0275 18.7189 26.8175 19.5832 26.8175 20.5525C26.8175 21.5218 27.0275 22.3861 27.4475 23.1454C27.8837 23.9047 28.4734 24.5025 29.2165 24.9387C29.9596 25.3748 30.7997 25.5929 31.7367 25.5929Z" fill="black"/>
<path d="M43.6467 32.9354C43.5175 32.9354 43.3721 32.9031 43.2105 32.8385C42.6612 32.5962 42.5078 32.2085 42.7501 31.6753L45.1734 26.3684L45.1491 26.3441L39.7452 15.1486C39.6321 14.9063 39.616 14.6801 39.6968 14.4701C39.7775 14.2601 39.9391 14.0986 40.1814 13.9855C40.7145 13.7431 41.1023 13.8805 41.3446 14.3974L46.07 24.3571L50.5773 14.4217C50.8196 13.9047 51.2073 13.7593 51.7404 13.9855C52.2897 14.2116 52.4432 14.5913 52.2008 15.1244L44.3494 32.3781C44.1879 32.7497 43.9536 32.9354 43.6467 32.9354Z" fill="black"/>
<path d="M60.0115 27.2892C58.7676 27.2892 57.6529 26.9984 56.6674 26.4168C55.682 25.8191 54.8984 25.0113 54.3168 23.9936C53.7514 22.9758 53.4687 21.8288 53.4687 20.5525C53.4687 19.2601 53.7595 18.105 54.3411 17.0873C54.9388 16.0695 55.7466 15.2698 56.7644 14.6882C57.7821 14.0905 58.9291 13.7916 60.2054 13.7916C61.4816 13.7916 62.6206 14.0905 63.6222 14.6882C64.64 15.2698 65.4397 16.0695 66.0213 17.0873C66.619 18.105 66.9259 19.2601 66.9421 20.5525V26.2472C66.9421 26.5219 66.8532 26.748 66.6755 26.9257C66.4978 27.0873 66.2717 27.1681 65.997 27.1681C65.7224 27.1681 65.4962 27.0873 65.3185 26.9257C65.1408 26.748 65.0519 26.5219 65.0519 26.2472V24.769C64.5027 25.5445 63.7918 26.1584 62.9195 26.6107C62.0471 27.063 61.0778 27.2892 60.0115 27.2892ZM60.2054 25.5929C61.1424 25.5929 61.9744 25.3748 62.7014 24.9387C63.4445 24.5025 64.0261 23.9047 64.4461 23.1454C64.8823 22.37 65.1004 21.5057 65.1004 20.5525C65.1004 19.5832 64.8823 18.7189 64.4461 17.9596C64.0261 17.2003 63.4445 16.6026 62.7014 16.1664C61.9744 15.7141 61.1424 15.4879 60.2054 15.4879C59.2846 15.4879 58.4526 15.7141 57.7094 16.1664C56.9663 16.6026 56.3766 17.2003 55.9404 17.9596C55.5042 18.7189 55.2862 19.5832 55.2862 20.5525C55.2862 21.5057 55.5042 22.37 55.9404 23.1454C56.3766 23.9047 56.9663 24.5025 57.7094 24.9387C58.4526 25.3748 59.2846 25.5929 60.2054 25.5929Z" fill="black"/>
<path d="M76.4112 27.2892C75.1349 27.2892 74.0041 27.0065 73.0186 26.4411C72.0332 25.8595 71.2577 25.0598 70.6923 24.042C70.143 23.0243 69.8684 21.8611 69.8684 20.5525C69.8684 19.2278 70.1592 18.0566 70.7408 17.0388C71.3223 16.021 72.122 15.2294 73.1398 14.664C74.1576 14.0824 75.3127 13.7916 76.6051 13.7916C77.9136 13.7916 79.0687 14.0824 80.0704 14.664C81.0881 15.2294 81.8797 16.021 82.4451 17.0388C83.0267 18.0566 83.3256 19.2278 83.3418 20.5525V25.496C83.3418 26.8046 83.051 27.9758 82.4694 29.0097C81.8878 30.0598 81.0962 30.8837 80.0946 31.4815C79.093 32.0954 77.9459 32.4023 76.6535 32.4023C75.3773 32.4023 74.2545 32.16 73.2852 31.6753C72.3159 31.2068 71.5162 30.5606 70.8861 29.7367C70.7084 29.5429 70.6277 29.3328 70.6438 29.1067C70.6761 28.8805 70.7973 28.6947 71.0073 28.5493C71.2173 28.4039 71.4516 28.3555 71.7101 28.4039C71.9686 28.4524 72.1705 28.5736 72.3159 28.7674C72.7844 29.349 73.3821 29.8175 74.1091 30.1729C74.8522 30.5283 75.7085 30.706 76.6778 30.706C77.5825 30.706 78.3983 30.4879 79.1253 30.0517C79.8523 29.6156 80.4258 29.0017 80.8458 28.2101C81.282 27.4185 81.5001 26.4895 81.5001 25.4233V24.3086C81.0154 25.2294 80.3288 25.9564 79.4403 26.4895C78.5679 27.0227 77.5582 27.2892 76.4112 27.2892ZM76.6051 25.5929C77.5582 25.5929 78.3983 25.3829 79.1253 24.9629C79.8684 24.5267 80.45 23.929 80.87 23.1697C81.2901 22.4104 81.5001 21.538 81.5001 20.5525C81.5001 19.5671 81.2901 18.6947 80.87 17.9354C80.45 17.16 79.8684 16.5622 79.1253 16.1422C78.3983 15.706 77.5582 15.4879 76.6051 15.4879C75.6519 15.4879 74.8038 15.706 74.0606 16.1422C73.3175 16.5622 72.7359 17.16 72.3159 17.9354C71.8959 18.6947 71.6858 19.5671 71.6858 20.5525C71.6858 21.538 71.8959 22.4104 72.3159 23.1697C72.7359 23.929 73.3175 24.5267 74.0606 24.9629C74.8038 25.3829 75.6519 25.5929 76.6051 25.5929Z" fill="black"/>
<path d="M92.9805 27.2892C91.672 27.2892 90.5088 27.0065 89.491 26.4411C88.4894 25.8595 87.6978 25.0598 87.1162 24.042C86.5508 23.0243 86.2681 21.8611 86.2681 20.5525C86.2681 19.2278 86.5346 18.0646 87.0677 17.063C87.617 16.0453 88.3682 15.2456 89.3214 14.664C90.2745 14.0824 91.3731 13.7916 92.617 13.7916C93.8448 13.7916 94.9111 14.0743 95.8157 14.6398C96.7366 15.189 97.4474 15.9564 97.9482 16.9419C98.449 17.9273 98.6994 19.0501 98.6994 20.3102C98.6994 20.5687 98.6187 20.7787 98.4571 20.9403C98.2955 21.0857 98.0855 21.1584 97.8271 21.1584H88.037C88.134 22.0307 88.4005 22.8062 88.8367 23.4847C89.2729 24.1471 89.8464 24.6721 90.5572 25.0598C91.2681 25.4314 92.0758 25.6172 92.9805 25.6172C93.5621 25.6172 94.1437 25.5202 94.7253 25.3264C95.323 25.1164 95.7996 24.8579 96.155 24.5509C96.3327 24.4055 96.5346 24.3328 96.7608 24.3328C96.987 24.3167 97.1809 24.3732 97.3424 24.5025C97.5524 24.6963 97.6574 24.9063 97.6574 25.1325C97.6736 25.3587 97.5847 25.5525 97.3909 25.7141C96.8577 26.1664 96.1792 26.5461 95.3553 26.853C94.5314 27.1438 93.7398 27.2892 92.9805 27.2892ZM92.617 15.4637C91.3731 15.4637 90.3472 15.8514 89.5395 16.6268C88.7317 17.3861 88.2471 18.3797 88.0855 19.6075H96.9547C96.8254 18.3797 96.3731 17.3861 95.5976 16.6268C94.8384 15.8514 93.8448 15.4637 92.617 15.4637Z" fill="black"/>
<path d="M102.777 27.1681C102.163 27.1681 101.856 26.8611 101.856 26.2472V14.8336C101.856 14.2197 102.163 13.9128 102.777 13.9128C103.391 13.9128 103.698 14.2197 103.698 14.8336V15.8756C104.182 15.2294 104.78 14.7205 105.491 14.349C106.202 13.9612 106.985 13.7674 107.841 13.7674C108.585 13.7674 109.158 13.8724 109.562 14.0824C109.966 14.2924 110.119 14.5994 110.022 15.0032C109.942 15.3748 109.748 15.5687 109.441 15.5848C109.15 15.5848 108.803 15.5687 108.399 15.5364C107.494 15.4556 106.686 15.5525 105.975 15.8272C105.281 16.0856 104.723 16.4895 104.303 17.0388C103.9 17.5881 103.698 18.2424 103.698 19.0016V26.2472C103.698 26.8611 103.391 27.1681 102.777 27.1681Z" fill="black"/>
<path d="M126.112 27.4104C124.561 27.4104 123.188 27.0792 121.993 26.4168C120.813 25.7545 119.973 24.874 119.473 23.7755C119.343 23.517 119.335 23.2828 119.448 23.0727C119.578 22.8466 119.788 22.6931 120.078 22.6123C120.305 22.5477 120.523 22.5719 120.733 22.685C120.959 22.7981 121.128 22.9677 121.242 23.1939C121.613 23.9047 122.227 24.4863 123.083 24.9387C123.939 25.391 124.949 25.6172 126.112 25.6172C127.389 25.6172 128.439 25.3102 129.263 24.6963C130.103 24.0663 130.523 23.1616 130.523 21.9823C130.523 20.9968 130.159 20.1487 129.432 19.4378C128.705 18.727 127.566 18.2747 126.015 18.0808C124.125 17.8546 122.647 17.273 121.581 16.336C120.515 15.3829 119.981 14.2197 119.981 12.8465C119.981 11.8611 120.24 11.0049 120.757 10.2779C121.29 9.55089 122.017 8.99354 122.938 8.60582C123.859 8.20194 124.917 8 126.112 8C127.453 8 128.6 8.30695 129.553 8.92084C130.507 9.51858 131.242 10.2294 131.759 11.0533C131.92 11.3118 131.969 11.5622 131.904 11.8045C131.855 12.0469 131.718 12.2326 131.492 12.3619C131.25 12.475 130.999 12.4911 130.741 12.4104C130.498 12.3296 130.313 12.1761 130.183 11.9499C129.812 11.3845 129.303 10.8918 128.657 10.4717C128.027 10.0355 127.17 9.80938 126.088 9.79322C124.812 9.79322 123.786 10.0679 123.011 10.6171C122.235 11.1502 121.847 11.9338 121.847 12.9677C121.847 13.7916 122.179 14.5105 122.841 15.1244C123.519 15.7383 124.715 16.1664 126.427 16.4087C128.447 16.6995 129.941 17.3215 130.91 18.2747C131.896 19.2117 132.389 20.4395 132.389 21.958C132.389 23.1212 132.106 24.1147 131.54 24.9387C130.991 25.7464 130.24 26.3603 129.287 26.7803C128.334 27.2004 127.275 27.4104 126.112 27.4104Z" fill="black"/>
<path d="M142.133 27.2892C140.84 27.2892 139.685 26.9984 138.667 26.4168C137.65 25.8353 136.85 25.0356 136.268 24.0178C135.687 23 135.396 21.8449 135.396 20.5525C135.396 19.244 135.687 18.0808 136.268 17.063C136.85 16.0453 137.65 15.2456 138.667 14.664C139.685 14.0824 140.84 13.7916 142.133 13.7916C143.425 13.7916 144.572 14.0824 145.574 14.664C146.592 15.2456 147.391 16.0453 147.973 17.063C148.554 18.0808 148.853 19.244 148.869 20.5525C148.869 21.8449 148.571 23 147.973 24.0178C147.391 25.0356 146.592 25.8353 145.574 26.4168C144.572 26.9984 143.425 27.2892 142.133 27.2892ZM142.133 25.5929C143.07 25.5929 143.91 25.3748 144.653 24.9387C145.396 24.5025 145.978 23.9047 146.398 23.1454C146.818 22.3861 147.028 21.5218 147.028 20.5525C147.028 19.5832 146.818 18.7189 146.398 17.9596C145.978 17.1842 145.396 16.5784 144.653 16.1422C143.91 15.706 143.07 15.4879 142.133 15.4879C141.196 15.4879 140.356 15.706 139.613 16.1422C138.869 16.5784 138.28 17.1842 137.844 17.9596C137.424 18.7189 137.214 19.5832 137.214 20.5525C137.214 21.5218 137.424 22.3861 137.844 23.1454C138.28 23.9047 138.869 24.5025 139.613 24.9387C140.356 25.3748 141.196 25.5929 142.133 25.5929Z" fill="black"/>
<path d="M158.411 27.2892C157.135 27.2892 155.996 26.9984 154.994 26.4168C154.009 25.8191 153.225 25.0113 152.644 23.9936C152.078 22.9758 151.796 21.8288 151.796 20.5525C151.796 19.2601 152.07 18.105 152.62 17.0873C153.169 16.0695 153.92 15.2698 154.873 14.6882C155.826 14.0905 156.925 13.7916 158.169 13.7916C160.188 13.7916 161.828 14.5671 163.088 16.118C163.266 16.3118 163.331 16.5218 163.282 16.748C163.234 16.958 163.096 17.1438 162.87 17.3054C162.692 17.4346 162.49 17.4831 162.264 17.4508C162.054 17.4023 161.868 17.2811 161.707 17.0873C160.77 16.021 159.591 15.4879 158.169 15.4879C157.264 15.4879 156.465 15.706 155.77 16.1422C155.091 16.5784 154.558 17.1761 154.171 17.9354C153.799 18.6947 153.613 19.5671 153.613 20.5525C153.613 21.5218 153.815 22.3861 154.219 23.1454C154.623 23.9047 155.188 24.5025 155.915 24.9387C156.642 25.3748 157.474 25.5929 158.411 25.5929C159.704 25.5929 160.746 25.2456 161.537 24.5509C161.731 24.3894 161.933 24.3005 162.143 24.2844C162.353 24.2682 162.547 24.3328 162.725 24.4782C162.919 24.6559 163.024 24.8579 163.04 25.084C163.072 25.3102 162.999 25.5041 162.822 25.6656C161.642 26.748 160.172 27.2892 158.411 27.2892Z" fill="black"/>
<path d="M168.267 27.1681C167.976 27.1681 167.742 27.0873 167.564 26.9257C167.403 26.748 167.322 26.5138 167.322 26.223V14.8579C167.322 14.5671 167.403 14.3409 167.564 14.1793C167.742 14.0016 167.976 13.9128 168.267 13.9128C168.541 13.9128 168.76 14.0016 168.921 14.1793C169.099 14.3409 169.188 14.5671 169.188 14.8579V26.223C169.188 26.5138 169.099 26.748 168.921 26.9257C168.76 27.0873 168.541 27.1681 168.267 27.1681ZM168.243 11.3926C167.887 11.3926 167.58 11.2633 167.322 11.0049C167.063 10.7464 166.934 10.4313 166.934 10.0598C166.934 9.6559 167.063 9.34088 167.322 9.1147C167.596 8.87238 167.911 8.75121 168.267 8.75121C168.606 8.75121 168.905 8.87238 169.163 9.1147C169.438 9.34088 169.575 9.6559 169.575 10.0598C169.575 10.4313 169.446 10.7464 169.188 11.0049C168.929 11.2633 168.614 11.3926 168.243 11.3926Z" fill="black"/>
<path d="M179.779 27.2892C178.535 27.2892 177.42 26.9984 176.435 26.4168C175.449 25.8191 174.666 25.0113 174.084 23.9936C173.519 22.9758 173.236 21.8288 173.236 20.5525C173.236 19.2601 173.527 18.105 174.108 17.0873C174.706 16.0695 175.514 15.2698 176.532 14.6882C177.549 14.0905 178.696 13.7916 179.973 13.7916C181.249 13.7916 182.388 14.0905 183.39 14.6882C184.407 15.2698 185.207 16.0695 185.789 17.0873C186.386 18.105 186.693 19.2601 186.709 20.5525V26.2472C186.709 26.5219 186.621 26.748 186.443 26.9257C186.265 27.0873 186.039 27.1681 185.764 27.1681C185.49 27.1681 185.264 27.0873 185.086 26.9257C184.908 26.748 184.819 26.5219 184.819 26.2472V24.769C184.27 25.5445 183.559 26.1584 182.687 26.6107C181.814 27.063 180.845 27.2892 179.779 27.2892ZM179.973 25.5929C180.91 25.5929 181.742 25.3748 182.469 24.9387C183.212 24.5025 183.793 23.9047 184.213 23.1454C184.65 22.37 184.868 21.5057 184.868 20.5525C184.868 19.5832 184.65 18.7189 184.213 17.9596C183.793 17.2003 183.212 16.6026 182.469 16.1664C181.742 15.7141 180.91 15.4879 179.973 15.4879C179.052 15.4879 178.22 15.7141 177.477 16.1664C176.734 16.6026 176.144 17.2003 175.708 17.9596C175.272 18.7189 175.053 19.5832 175.053 20.5525C175.053 21.5057 175.272 22.37 175.708 23.1454C176.144 23.9047 176.734 24.5025 177.477 24.9387C178.22 25.3748 179.052 25.5929 179.973 25.5929Z" fill="black"/>
<path d="M193.198 27.1681C192.229 27.1681 191.429 26.7803 190.799 26.0049C190.169 25.2133 189.854 24.2036 189.854 22.9758V9.16317C189.854 8.88853 189.935 8.67044 190.096 8.50889C190.274 8.33118 190.5 8.24233 190.775 8.24233C191.049 8.24233 191.267 8.33118 191.429 8.50889C191.607 8.67044 191.695 8.88853 191.695 9.16317V22.9758C191.695 23.6705 191.833 24.2359 192.107 24.6721C192.398 25.1083 192.762 25.3264 193.198 25.3264H193.804C194.046 25.3264 194.24 25.4152 194.385 25.5929C194.531 25.7545 194.603 25.9726 194.603 26.2472C194.603 26.5219 194.498 26.748 194.288 26.9257C194.095 27.0873 193.836 27.1681 193.513 27.1681H193.198Z" fill="black"/>
<path d="M31.7367 27.2892C30.4443 27.2892 29.2892 26.9984 28.2714 26.4168C27.2536 25.8353 26.454 25.0356 25.8724 24.0178C25.2908 23 25 21.8449 25 20.5525C25 19.244 25.2908 18.0808 25.8724 17.063C26.454 16.0453 27.2536 15.2456 28.2714 14.664C29.2892 14.0824 30.4443 13.7916 31.7367 13.7916C33.0291 13.7916 34.1761 14.0824 35.1777 14.664C36.1955 15.2456 36.9952 16.0453 37.5768 17.063C38.1584 18.0808 38.4572 19.244 38.4734 20.5525C38.4734 21.8449 38.1745 23 37.5768 24.0178C36.9952 25.0356 36.1955 25.8353 35.1777 26.4168C34.1761 26.9984 33.0291 27.2892 31.7367 27.2892ZM31.7367 25.5929C32.6737 25.5929 33.5138 25.3748 34.2569 24.9387C35 24.5025 35.5816 23.9047 36.0016 23.1454C36.4217 22.3861 36.6317 21.5218 36.6317 20.5525C36.6317 19.5832 36.4217 18.7189 36.0016 17.9596C35.5816 17.1842 35 16.5784 34.2569 16.1422C33.5138 15.706 32.6737 15.4879 31.7367 15.4879C30.7997 15.4879 29.9596 15.706 29.2165 16.1422C28.4734 16.5784 27.8837 17.1842 27.4475 17.9596C27.0275 18.7189 26.8175 19.5832 26.8175 20.5525C26.8175 21.5218 27.0275 22.3861 27.4475 23.1454C27.8837 23.9047 28.4734 24.5025 29.2165 24.9387C29.9596 25.3748 30.7997 25.5929 31.7367 25.5929Z" fill="black"/>
<path d="M60.0115 27.2892C58.7676 27.2892 57.6529 26.9984 56.6674 26.4168C55.682 25.8191 54.8984 25.0113 54.3168 23.9936C53.7514 22.9758 53.4687 21.8288 53.4687 20.5525C53.4687 19.2601 53.7595 18.105 54.3411 17.0873C54.9388 16.0695 55.7466 15.2698 56.7644 14.6882C57.7821 14.0905 58.9291 13.7916 60.2054 13.7916C61.4816 13.7916 62.6206 14.0905 63.6222 14.6882C64.64 15.2698 65.4397 16.0695 66.0213 17.0873C66.619 18.105 66.9259 19.2601 66.9421 20.5525V26.2472C66.9421 26.5219 66.8532 26.748 66.6755 26.9257C66.4978 27.0873 66.2717 27.1681 65.997 27.1681C65.7224 27.1681 65.4962 27.0873 65.3185 26.9257C65.1408 26.748 65.0519 26.5219 65.0519 26.2472V24.769C64.5027 25.5445 63.7918 26.1584 62.9195 26.6107C62.0471 27.063 61.0778 27.2892 60.0115 27.2892ZM60.2054 25.5929C61.1424 25.5929 61.9744 25.3748 62.7014 24.9387C63.4445 24.5025 64.0261 23.9047 64.4461 23.1454C64.8823 22.37 65.1004 21.5057 65.1004 20.5525C65.1004 19.5832 64.8823 18.7189 64.4461 17.9596C64.0261 17.2003 63.4445 16.6026 62.7014 16.1664C61.9744 15.7141 61.1424 15.4879 60.2054 15.4879C59.2846 15.4879 58.4526 15.7141 57.7094 16.1664C56.9663 16.6026 56.3766 17.2003 55.9404 17.9596C55.5042 18.7189 55.2862 19.5832 55.2862 20.5525C55.2862 21.5057 55.5042 22.37 55.9404 23.1454C56.3766 23.9047 56.9663 24.5025 57.7094 24.9387C58.4526 25.3748 59.2846 25.5929 60.2054 25.5929Z" fill="black"/>
<path d="M92.9805 27.2892C91.672 27.2892 90.5088 27.0065 89.491 26.4411C88.4894 25.8595 87.6978 25.0598 87.1162 24.042C86.5508 23.0243 86.2681 21.8611 86.2681 20.5525C86.2681 19.2278 86.5346 18.0646 87.0677 17.063C87.617 16.0453 88.3682 15.2456 89.3214 14.664C90.2745 14.0824 91.3731 13.7916 92.617 13.7916C93.8448 13.7916 94.9111 14.0743 95.8157 14.6398C96.7366 15.189 97.4474 15.9564 97.9482 16.9419C98.449 17.9273 98.6994 19.0501 98.6994 20.3102C98.6994 20.5687 98.6187 20.7787 98.4571 20.9403C98.2955 21.0857 98.0855 21.1584 97.8271 21.1584H88.037C88.134 22.0307 88.4005 22.8062 88.8367 23.4847C89.2729 24.1471 89.8464 24.6721 90.5572 25.0598C91.2681 25.4314 92.0758 25.6172 92.9805 25.6172C93.5621 25.6172 94.1437 25.5202 94.7253 25.3264C95.323 25.1164 95.7996 24.8579 96.155 24.5509C96.3327 24.4055 96.5346 24.3328 96.7608 24.3328C96.987 24.3167 97.1809 24.3732 97.3424 24.5025C97.5524 24.6963 97.6574 24.9063 97.6574 25.1325C97.6736 25.3587 97.5847 25.5525 97.3909 25.7141C96.8577 26.1664 96.1792 26.5461 95.3553 26.853C94.5314 27.1438 93.7398 27.2892 92.9805 27.2892ZM92.617 15.4637C91.3731 15.4637 90.3472 15.8514 89.5395 16.6268C88.7317 17.3861 88.2471 18.3797 88.0855 19.6075H96.9547C96.8254 18.3797 96.3731 17.3861 95.5976 16.6268C94.8384 15.8514 93.8448 15.4637 92.617 15.4637Z" fill="black"/>
<path d="M102.777 27.1681C102.163 27.1681 101.856 26.8611 101.856 26.2472V14.8336C101.856 14.2197 102.163 13.9128 102.777 13.9128C103.391 13.9128 103.698 14.2197 103.698 14.8336V15.8756C104.182 15.2294 104.78 14.7205 105.491 14.349C106.202 13.9612 106.985 13.7674 107.841 13.7674C108.585 13.7674 109.158 13.8724 109.562 14.0824C109.966 14.2924 110.119 14.5994 110.022 15.0032C109.942 15.3748 109.748 15.5687 109.441 15.5848C109.15 15.5848 108.803 15.5687 108.399 15.5364C107.494 15.4556 106.686 15.5525 105.975 15.8272C105.281 16.0856 104.723 16.4895 104.303 17.0388C103.9 17.5881 103.698 18.2424 103.698 19.0016V26.2472C103.698 26.8611 103.391 27.1681 102.777 27.1681Z" fill="black"/>
</svg>
