<svg width="177" height="178" viewBox="0 0 177 178" fill="none" xmlns="http://www.w3.org/2000/svg">
<g clip-path="url(#clip0_729_271)">
<path d="M88.2353 177.412C136.966 177.412 176.471 137.908 176.471 89.1767C176.471 40.4457 136.966 0.941406 88.2353 0.941406C39.5043 0.941406 0 40.4457 0 89.1767C0 137.908 39.5043 177.412 88.2353 177.412Z" fill="#BE123C"/>
<path d="M40.473 46.7624C42.0443 50.0364 69.5408 99.658 70.0318 100.067C70.4246 100.477 75.4329 91.3707 75.4329 90.2453C75.4329 89.2222 52.4537 47.4786 50.686 45.2278C50.0968 44.5116 47.4454 44 44.4011 44H39L40.473 46.7624Z" fill="white"/>
<path d="M59.8187 46.2508C60.9971 48.7064 79.4591 82.1626 79.8519 82.6741C80.2447 83.1857 85.253 73.466 85.1548 72.2382C85.1548 71.6244 81.7178 65.0764 77.5933 57.8122L70.0317 44.5115L64.336 44.2046C58.6403 43.8977 58.6403 43.8977 59.8187 46.2508Z" fill="white"/>
<path d="M102.537 56.789C99.0014 63.2347 96.0554 68.9642 96.0554 69.5781C96.0554 70.2943 97.9212 70.6012 101.162 70.3966L106.367 70.0897L110 63.5417C111.964 59.9607 114.125 56.4821 114.714 55.8682C116.089 54.4358 122.766 54.2312 122.374 55.7659C122.177 56.3798 119.624 61.2908 116.678 66.8157L111.277 76.74H91.3417L82.8963 92.2915L74.4509 107.741L81.9143 121.451C86.0388 129.022 89.6722 134.854 89.9668 134.649C90.1633 134.342 95.2698 125.441 101.162 114.903L111.768 95.6678L106.759 95.3609C103.912 95.1562 101.26 95.4632 100.769 95.9747C100.18 96.5886 97.7248 100.783 95.0734 105.49C92.5201 110.196 90.0651 113.982 89.6722 113.879C89.2794 113.879 88.101 112.447 87.119 110.81L85.4496 107.945L91.0471 97.7141L96.7428 87.4828L116.972 86.4597L127.676 67.0203C133.667 56.2775 138.675 46.967 138.97 46.2508C139.362 45.33 136.024 45.0231 124.239 45.0231H109.116L102.537 56.789Z" fill="white"/>
</g>
<defs>
<clipPath id="clip0_729_271">
<rect width="177" height="178" fill="white"/>
</clipPath>
</defs>
</svg>
